<svg width="243" height="104" viewBox="0 0 243 104" fill="none" xmlns="http://www.w3.org/2000/svg" xmlns:xlink="http://www.w3.org/1999/xlink">
<path d="M102.12 58C101.773 58 101.6 57.84 101.6 57.52V31.6C101.6 31.2533 101.773 31.08 102.12 31.08H108.88C110.96 31.08 112.64 31.36 113.92 31.92C115.227 32.4533 116.187 33.32 116.8 34.52C117.413 35.72 117.72 37.3467 117.72 39.4C117.72 40.84 117.467 42.1867 116.96 43.44C116.453 44.6933 115.653 45.7333 114.56 46.56C114.187 46.9067 113.907 47.2267 113.72 47.52C113.56 47.8133 113.627 48.2 113.92 48.68C114.133 49.16 114.373 49.64 114.64 50.12C114.907 50.5733 115.2 50.9867 115.52 51.36C115.84 51.7333 116.2 52.0533 116.6 52.32C117.027 52.6133 117.507 52.84 118.04 53C118.573 53.16 119.2 53.24 119.92 53.24C120.16 53.24 120.307 53.2667 120.36 53.32C120.44 53.3733 120.48 53.5467 120.48 53.84V57.52C120.48 57.68 120.453 57.7867 120.4 57.84C120.347 57.8933 120.187 57.9333 119.92 57.96C119.653 57.9867 119.2 58 118.56 58C117.467 58 116.453 57.84 115.52 57.52C114.613 57.2 113.787 56.76 113.04 56.2C112.373 55.6933 111.747 55.0933 111.16 54.4C110.6 53.68 110.107 52.9067 109.68 52.08C109.253 51.2533 108.88 50.3867 108.56 49.48C108.533 49.4267 108.48 49.28 108.4 49.04C108.32 48.8 108.2 48.68 108.04 48.68H107.12C106.96 48.68 106.88 48.88 106.88 49.28V57.52C106.88 57.84 106.693 58 106.32 58H102.12ZM106.88 44.16C106.88 44.2667 106.907 44.3467 106.96 44.4C107.013 44.4533 107.093 44.48 107.2 44.48H108.8C109.973 44.48 110.893 44.04 111.56 43.16C112.227 42.2533 112.56 41.0133 112.56 39.44C112.56 38.1333 112.4 37.1467 112.08 36.48C111.787 35.8133 111.347 35.36 110.76 35.12C110.2 34.88 109.507 34.76 108.68 34.76H107.2C107.067 34.76 106.973 34.7733 106.92 34.8C106.893 34.8267 106.88 34.9333 106.88 35.12V44.16ZM130.27 58.28C128.91 58.28 127.63 58.1333 126.43 57.84C125.257 57.52 124.297 56.92 123.55 56.04C122.83 55.16 122.47 53.88 122.47 52.2C122.47 50.8133 122.724 49.68 123.23 48.8C123.764 47.8933 124.43 47.2 125.23 46.72C126.057 46.24 126.91 45.92 127.79 45.76C128.67 45.5733 129.457 45.48 130.15 45.48C130.71 45.48 131.244 45.5067 131.75 45.56C132.284 45.5867 132.777 45.64 133.23 45.72C133.47 45.8 133.59 45.6267 133.59 45.2C133.59 44.2133 133.284 43.52 132.67 43.12C132.084 42.72 131.257 42.52 130.19 42.52C129.177 42.52 128.204 42.7067 127.27 43.08C126.364 43.4533 125.59 43.8 124.95 44.12C124.657 44.28 124.457 44.3333 124.35 44.28C124.27 44.2267 124.204 44.0533 124.15 43.76L123.79 41.52C123.737 41.1733 123.737 40.9467 123.79 40.84C123.844 40.7333 123.99 40.6 124.23 40.44C124.924 39.9867 125.804 39.6267 126.87 39.36C127.937 39.0667 129.07 38.92 130.27 38.92C132.084 38.92 133.537 39.1333 134.63 39.56C135.724 39.96 136.537 40.5067 137.07 41.2C137.63 41.8933 137.99 42.6933 138.15 43.6C138.337 44.48 138.43 45.4 138.43 46.36C138.457 47.48 138.457 48.5867 138.43 49.68C138.43 50.7467 138.404 51.8133 138.35 52.88C138.297 53.9467 138.217 55.0267 138.11 56.12C138.057 56.4133 137.977 56.64 137.87 56.8C137.764 56.9333 137.55 57.08 137.23 57.24C136.857 57.4267 136.364 57.5867 135.75 57.72C135.137 57.8267 134.47 57.92 133.75 58C133.057 58.1067 132.404 58.1733 131.79 58.2C131.177 58.2533 130.67 58.28 130.27 58.28ZM130.59 55.2C130.804 55.2 131.044 55.1867 131.31 55.16C131.577 55.1067 131.844 55.04 132.11 54.96C132.377 54.88 132.59 54.7733 132.75 54.64C132.937 54.5067 133.044 54.3333 133.07 54.12C133.15 53.48 133.217 52.7733 133.27 52C133.324 51.2267 133.324 50.48 133.27 49.76C133.27 49.4133 133.137 49.1733 132.87 49.04C132.604 48.8533 132.217 48.7467 131.71 48.72C131.23 48.6667 130.83 48.64 130.51 48.64C130.27 48.64 129.964 48.6933 129.59 48.8C129.244 48.88 128.91 49.04 128.59 49.28C128.27 49.52 128.004 49.88 127.79 50.36C127.604 50.84 127.51 51.4533 127.51 52.2C127.51 52.7867 127.63 53.3067 127.87 53.76C128.11 54.2133 128.457 54.5733 128.91 54.84C129.364 55.08 129.924 55.2 130.59 55.2ZM141.339 48.84C141.393 46.8133 141.659 45.16 142.139 43.88C142.646 42.6 143.286 41.6 144.059 40.88C144.859 40.16 145.739 39.6667 146.699 39.4C147.659 39.1333 148.633 39 149.619 39C149.993 39 150.419 39.04 150.899 39.12C151.379 39.2 151.753 39.2667 152.019 39.32C152.206 39.3733 152.353 39.3867 152.459 39.36C152.593 39.3333 152.659 39.2133 152.659 39C152.659 38.52 152.646 38.0133 152.619 37.48C152.619 36.9467 152.593 36.4133 152.539 35.88C152.513 35.32 152.473 34.7733 152.419 34.24C152.366 33.68 152.313 33.16 152.259 32.68C152.233 32.1733 152.193 31.72 152.139 31.32C152.086 30.8667 152.099 30.6 152.179 30.52C152.286 30.44 152.459 30.4 152.699 30.4H156.539C156.726 30.4 156.873 30.4133 156.979 30.44C157.113 30.4667 157.193 30.5733 157.219 30.76C157.326 31.8533 157.419 33.1333 157.499 34.6C157.579 36.04 157.646 37.6 157.699 39.28C157.753 40.9333 157.779 42.6 157.779 44.28C157.806 45.96 157.793 47.5733 157.739 49.12C157.713 50.6667 157.646 52.04 157.539 53.24C157.459 54.44 157.339 55.36 157.179 56C157.099 56.32 156.979 56.56 156.819 56.72C156.686 56.88 156.326 57.0667 155.739 57.28C155.233 57.4933 154.419 57.72 153.299 57.96C152.179 58.1733 150.953 58.28 149.619 58.28C148.579 58.2533 147.606 58.1333 146.699 57.92C145.819 57.68 145.046 57.3067 144.379 56.8C143.366 56.08 142.606 55.0667 142.099 53.76C141.593 52.4267 141.339 50.7867 141.339 48.84ZM146.579 48.88C146.553 50.72 146.766 52.0267 147.219 52.8C147.699 53.5467 148.299 53.9733 149.019 54.08C149.339 54.1867 149.673 54.2533 150.019 54.28C150.393 54.28 150.753 54.2533 151.099 54.2C151.473 54.12 151.793 54.0267 152.059 53.92C152.139 53.8667 152.193 53.8133 152.219 53.76C152.273 53.68 152.299 53.5733 152.299 53.44C152.326 52.8533 152.353 52.24 152.379 51.6C152.433 50.96 152.459 50.32 152.459 49.68C152.486 49.04 152.513 48.4 152.539 47.76C152.566 47.12 152.579 46.5067 152.579 45.92C152.606 45.3333 152.606 44.7867 152.579 44.28C152.579 44.0933 152.553 43.9733 152.499 43.92C152.473 43.84 152.406 43.7867 152.299 43.76C151.953 43.6267 151.539 43.52 151.059 43.44C150.606 43.3333 150.219 43.28 149.899 43.28C149.579 43.28 149.219 43.3467 148.819 43.48C148.446 43.6133 148.086 43.8667 147.739 44.24C147.419 44.6133 147.153 45.1733 146.939 45.92C146.726 46.64 146.606 47.6267 146.579 48.88ZM166.51 33.96C166.51 34.76 166.336 35.3733 165.99 35.8C165.643 36.2 164.923 36.4 163.83 36.4C162.79 36.4 162.07 36.2 161.67 35.8C161.296 35.3733 161.11 34.76 161.11 33.96C161.11 33.2667 161.296 32.7067 161.67 32.28C162.07 31.8267 162.79 31.6 163.83 31.6C164.976 31.6 165.71 31.8267 166.03 32.28C166.35 32.7067 166.51 33.2667 166.51 33.96ZM166.39 57.52C166.39 57.84 166.216 58 165.87 58H161.75C161.43 58 161.27 57.84 161.27 57.52V39.6C161.27 39.28 161.43 39.12 161.75 39.12H165.87C166.216 39.12 166.39 39.28 166.39 39.6V57.52ZM177.746 58.16C175.56 58.16 173.866 57.7467 172.666 56.92C171.493 56.0933 170.68 55 170.226 53.64C169.773 52.28 169.546 50.7733 169.546 49.12C169.546 48.1333 169.56 47.1067 169.586 46.04C169.64 44.9733 169.706 43.9333 169.786 42.92C169.866 41.88 169.96 40.9333 170.066 40.08C170.12 39.6 170.2 39.32 170.306 39.24C170.413 39.16 170.653 39.12 171.026 39.12H174.266C174.64 39.12 174.906 39.1333 175.066 39.16C175.226 39.16 175.266 39.4 175.186 39.88C175.186 39.9867 175.16 40.3733 175.106 41.04C175.08 41.7067 175.04 42.5333 174.986 43.52C174.933 44.48 174.893 45.48 174.866 46.52C174.84 47.5333 174.826 48.4533 174.826 49.28C174.826 50.96 175.053 52.2 175.506 53C175.986 53.7733 176.773 54.16 177.866 54.16C178 54.16 178.186 54.16 178.426 54.16C178.666 54.1333 178.906 54.0933 179.146 54.04C179.386 53.9867 179.586 53.9067 179.746 53.8C179.906 53.6933 179.986 53.5467 179.986 53.36V39.8C179.986 39.6667 180 39.52 180.026 39.36C180.053 39.2 180.146 39.12 180.306 39.12H184.466C184.573 39.12 184.693 39.1467 184.826 39.2C184.96 39.2533 185.026 39.4 185.026 39.64V56C185.026 56.32 184.933 56.5467 184.746 56.68C184.56 56.8133 184.173 56.9867 183.586 57.2C183.293 57.3067 182.8 57.44 182.106 57.6C181.44 57.7333 180.706 57.8667 179.906 58C179.133 58.1067 178.413 58.16 177.746 58.16ZM188.531 53.36C188.611 53.0667 188.731 52.9467 188.891 53C189.077 53.0267 189.251 53.0933 189.411 53.2C189.864 53.4133 190.384 53.6133 190.971 53.8C191.584 53.96 192.211 54.0933 192.851 54.2C193.491 54.28 194.064 54.32 194.571 54.32C195.104 54.32 195.584 54.2667 196.011 54.16C196.464 54.0267 196.824 53.8267 197.091 53.56C197.357 53.2933 197.491 52.9467 197.491 52.52C197.517 51.9333 197.251 51.4933 196.691 51.2C196.157 50.88 195.211 50.5733 193.851 50.28C192.997 50.0933 192.117 49.8267 191.211 49.48C190.331 49.1067 189.597 48.56 189.011 47.84C188.424 47.0933 188.131 46.12 188.131 44.92C188.131 43.56 188.477 42.4533 189.171 41.6C189.864 40.72 190.757 40.0533 191.851 39.6C192.971 39.1467 194.157 38.92 195.411 38.92C196.397 38.92 197.477 39.0667 198.651 39.36C199.824 39.6533 200.797 40.0267 201.571 40.48C201.811 40.6133 201.931 40.7333 201.931 40.84C201.957 40.9467 201.944 41.0933 201.891 41.28L200.931 43.88C200.851 44.2 200.597 44.28 200.171 44.12C199.584 43.7733 198.864 43.4533 198.011 43.16C197.157 42.8667 196.291 42.72 195.411 42.72C194.797 42.72 194.251 42.88 193.771 43.2C193.317 43.4933 193.091 43.88 193.091 44.36C193.091 44.9467 193.357 45.3733 193.891 45.64C194.424 45.9067 195.197 46.1467 196.211 46.36C196.957 46.52 197.677 46.7067 198.371 46.92C199.064 47.1067 199.704 47.4 200.291 47.8C200.877 48.1733 201.344 48.6933 201.691 49.36C202.037 50 202.211 50.84 202.211 51.88C202.211 53.08 201.984 54.0933 201.531 54.92C201.077 55.72 200.464 56.36 199.691 56.84C198.944 57.32 198.117 57.6667 197.211 57.88C196.331 58.0933 195.451 58.2 194.571 58.2C194.091 58.2 193.464 58.1467 192.691 58.04C191.917 57.9333 191.131 57.76 190.331 57.52C189.531 57.28 188.851 56.96 188.291 56.56C188.184 56.5067 188.091 56.44 188.011 56.36C187.957 56.2533 187.944 56.12 187.971 55.96L188.531 53.36Z" fill="#72AD29"/>
<mask id="path-2-outside-1_11_5" maskUnits="userSpaceOnUse" x="57.0613" y="45.8856" width="143.285" height="47.5976" fill="black">
<rect fill="white" x="57.0613" y="45.8856" width="143.285" height="47.5976"/>
<path d="M85.2922 70.8427C85.3765 71.0138 85.5253 71.0997 85.7386 71.1006C85.9946 71.1017 86.1447 70.9743 86.1889 70.7185C86.4525 69.4823 86.7161 68.2247 86.9799 66.9458C87.244 65.6242 87.5083 64.26 87.7729 62.8531C88.0375 61.4462 88.281 59.9965 88.5034 58.5041C88.7688 56.9692 88.9916 55.4128 89.1719 53.8349C89.3949 52.2571 89.5969 50.6153 89.778 48.9094C89.8672 48.2697 90.0825 47.9506 90.4238 47.9521L98.2957 47.985C98.5944 47.9863 98.8499 48.0727 99.0622 48.2442C99.3171 48.416 99.4437 48.6512 99.4419 48.9498C99.4322 50.5285 99.2712 52.4478 98.9588 54.7078C98.6466 56.9252 98.2265 59.3341 97.6987 61.9346C97.2135 64.5353 96.664 67.1783 96.0503 69.8638C95.4366 72.5492 94.8019 75.1706 94.1463 77.7279C93.4907 80.2851 92.8578 82.6292 92.2474 84.76C91.6371 86.8907 91.0715 88.6804 90.5507 90.1289C90.3774 90.5548 90.1412 90.8098 89.842 90.8939C89.5855 90.9782 89.2866 91.0196 88.9452 91.0182L84.0173 90.9976C83.6759 90.9961 83.3583 90.6108 83.0643 89.8416L72.7674 67.6543C72.7258 67.4835 72.6196 67.3977 72.4489 67.397C72.321 67.3964 72.235 67.5027 72.191 67.7159C71.6642 70.1457 71.2028 72.3411 70.8068 74.3021C70.4538 76.2207 70.1231 77.9686 69.8148 79.546C69.5495 81.0809 69.3064 82.4666 69.0855 83.703C68.9073 84.9396 68.7509 86.091 68.6164 87.1571C68.4822 88.1805 68.3697 89.14 68.2789 90.0357C68.2326 90.6328 67.9961 90.9305 67.5694 90.9287L59.8895 90.8966C59.5908 90.8953 59.2924 90.8514 58.9943 90.7648C58.6961 90.6782 58.5697 90.4217 58.6149 89.9952C58.7945 88.5453 59.04 86.7543 59.3517 84.6223C59.6634 82.4902 60.0404 80.1451 60.4826 77.587C60.9676 75.029 61.4742 72.4071 62.0026 69.7213C62.5737 67.0356 63.1658 64.3928 63.779 61.7926C64.4348 59.1927 65.0895 56.7848 65.743 54.5688C66.4395 52.3104 67.1339 50.3933 67.8261 48.8175C67.956 48.5194 68.1707 48.2856 68.4704 48.1162C68.8128 47.9469 69.112 47.8629 69.368 47.8639L74.0399 47.8835C74.4666 47.8853 74.7426 48.0998 74.868 48.527L85.2922 70.8427ZM100.148 75.897C100.587 73.9361 101.217 72.0401 102.039 70.2088C102.861 68.3776 103.937 66.7394 105.269 65.2943C106.643 63.8067 108.314 62.6404 110.282 61.7953C112.293 60.9504 114.685 60.5337 117.458 60.5453C120.317 60.5573 122.511 60.9718 124.043 61.7889C125.574 62.5633 126.634 63.6131 127.223 64.9382C127.813 66.2207 128.082 67.6511 128.029 69.2296C127.977 70.7654 127.776 72.3006 127.425 73.8351C127.03 75.6681 126.532 76.9034 125.931 77.5409C125.329 78.1784 124.581 78.4952 123.685 78.4915L109.925 78.4339C109.626 78.4326 109.455 78.4959 109.412 78.6238C109.368 78.7089 109.303 78.9006 109.216 79.1989C109.082 80.2224 109.183 81.1615 109.519 82.0162C109.898 82.8711 110.491 83.5563 111.298 84.0717C112.149 84.5872 113.214 84.8477 114.494 84.8531C115.987 84.8593 117.396 84.6305 118.722 84.1668C120.09 83.7031 121.031 83.3444 121.545 83.0906C122.229 82.7521 122.721 82.5622 123.02 82.5207C123.362 82.4368 123.637 82.7793 123.846 83.5482L124.724 86.5599C124.933 87.1581 124.931 87.5634 124.716 87.7759C124.544 87.9458 124.159 88.2002 123.559 88.539C121.846 89.5985 119.815 90.358 117.465 90.8175C115.116 91.2344 112.875 91.4383 110.742 91.4294C107.883 91.4174 105.624 91.0027 103.965 90.185C102.349 89.3676 101.182 88.2534 100.465 86.8424C99.7916 85.3889 99.4604 83.7235 99.4718 81.8462C99.4833 79.9689 99.7087 77.9858 100.148 75.897ZM118.283 72.2608C118.458 71.4509 118.526 70.7685 118.487 70.2137C118.448 69.6162 118.302 69.1249 118.048 68.7398C117.837 68.3549 117.519 68.0763 117.093 67.9038C116.71 67.6889 116.22 67.5802 115.623 67.5777C114.94 67.5748 114.321 67.7002 113.765 67.9539C113.251 68.2077 112.78 68.5471 112.351 68.972C111.964 69.397 111.62 69.8649 111.318 70.3757C111.016 70.8864 110.757 71.3973 110.541 71.9084C110.323 72.5902 110.214 73.0377 110.212 73.2511C110.254 73.4219 110.36 73.5077 110.531 73.5084C111.683 73.5132 112.835 73.518 113.987 73.5229C115.181 73.5279 116.355 73.5328 117.507 73.5376C117.805 73.5388 117.976 73.4756 118.02 73.3477C118.106 73.1774 118.194 72.8151 118.283 72.2608ZM137.269 91.2204C136.885 91.2188 136.608 91.1323 136.439 90.961C136.27 90.7469 136.122 90.469 135.996 90.1271C135.327 87.9483 134.743 85.6418 134.246 83.2077C133.792 80.7738 133.422 78.3616 133.138 75.971C132.897 73.5807 132.719 71.3186 132.604 69.1848C132.531 67.0511 132.521 65.1737 132.574 63.5526C132.621 62.8274 132.689 62.2304 132.777 61.7614C132.908 61.25 133.208 60.9952 133.677 60.9972L141.549 61.0301C142.189 61.0328 142.507 61.3542 142.504 61.9941C142.496 63.2741 142.488 64.5968 142.479 65.9621C142.471 67.2847 142.463 68.586 142.456 69.866C142.448 71.146 142.44 72.3406 142.434 73.4499C142.47 74.5594 142.485 75.5408 142.48 76.3941C142.518 77.205 142.557 77.8025 142.597 78.1866C142.635 78.9121 142.869 78.9771 143.3 78.3816C143.558 77.9987 143.839 77.4665 144.141 76.7851C144.487 76.1039 144.811 75.3799 145.115 74.6132C145.418 73.8038 145.7 73.0156 145.961 72.2487C146.222 71.4391 146.418 70.7573 146.55 70.2031C146.725 69.3932 146.879 68.6045 147.012 67.837C147.188 67.0271 147.342 66.2811 147.474 65.599C147.606 64.9168 147.738 64.2774 147.869 63.6806C148.001 63.0838 148.111 62.5723 148.199 62.146C148.331 61.4639 148.717 61.1241 149.357 61.1268L157.549 61.1611C157.805 61.1622 157.996 61.2483 158.123 61.4195C158.293 61.5482 158.334 61.7831 158.247 62.124C157.983 63.3603 157.676 64.7883 157.325 66.4082C157.016 68.0283 156.793 69.606 156.656 71.1414C156.609 71.7812 156.563 72.4211 156.516 73.0609C156.47 73.658 156.424 74.2552 156.377 74.8523C156.374 75.407 156.371 75.9403 156.368 76.4523C156.407 76.9218 156.447 77.3699 156.487 77.7968C156.528 78.1809 156.568 78.5438 156.609 78.8853C156.733 79.5258 156.946 79.5267 157.249 78.888C157.551 78.2492 157.897 77.4827 158.287 76.5883C158.719 75.6941 159.173 74.7147 159.649 73.65C160.168 72.5428 160.687 71.3716 161.206 70.1365C161.726 68.8586 162.246 67.5808 162.766 66.303C163.328 64.9827 163.848 63.6622 164.326 62.3415C164.629 61.5321 165.229 61.1292 166.125 61.133L172.845 61.1611C173.314 61.1631 173.527 61.3773 173.481 61.8038C173.436 62.2303 173.305 62.7631 173.087 63.4022C172.523 64.9785 171.787 66.7674 170.879 68.7689C169.971 70.7278 168.956 72.7716 167.833 74.9002C166.711 76.9862 165.568 79.0295 164.404 81.0299C163.283 82.9879 162.162 84.7752 161.043 86.3919C159.967 87.9661 158.999 89.2207 158.14 90.1558C157.796 90.5383 157.496 90.8358 157.239 91.048C157.024 91.2178 156.704 91.3018 156.277 91.3L152.053 91.2823C151.627 91.2805 151.328 91.2366 151.158 91.1506C151.031 91.022 150.904 90.8082 150.778 90.509C150.652 90.2098 150.463 89.697 150.211 88.9706C150.002 88.2444 149.773 87.4327 149.522 86.5357C149.314 85.6388 149.148 84.8274 149.025 84.1016C148.942 83.6319 148.773 83.3965 148.517 83.3955C148.304 83.3946 148.089 83.5857 147.874 83.9688C147.788 84.0964 147.594 84.3943 147.292 84.8623C146.991 85.2877 146.668 85.7557 146.324 86.2663C146.022 86.7344 145.764 87.096 145.549 87.3511C145.119 87.9039 144.646 88.5206 144.13 89.2011C143.656 89.8392 143.334 90.2645 143.162 90.4771C142.99 90.647 142.776 90.8168 142.519 90.9864C142.262 91.156 141.963 91.2401 141.621 91.2386L137.269 91.2204ZM172.149 83.2384C172.366 82.6846 172.623 82.451 172.921 82.5376C173.262 82.5817 173.56 82.7109 173.815 82.9253C174.453 83.312 175.219 83.6352 176.113 83.895C177.05 84.1549 177.988 84.3508 178.926 84.4827C179.906 84.6148 180.802 84.6826 181.612 84.686C182.38 84.6892 183.063 84.6281 183.662 84.5026C184.26 84.3344 184.773 84.1019 185.202 83.805C185.631 83.4655 185.932 83.0187 186.106 82.4648C186.193 82.1238 186.174 81.8037 186.048 81.5045C185.965 81.1628 185.561 80.8412 184.838 80.5395C184.157 80.1953 182.964 79.8703 181.26 79.5645C180.45 79.4331 179.555 79.216 178.576 78.9132C177.639 78.568 176.767 78.0523 175.961 77.3663C175.197 76.6804 174.627 75.7394 174.25 74.5431C173.916 73.347 173.947 71.7898 174.343 69.8715C174.781 67.9106 175.709 66.2718 177.125 64.9551C178.583 63.6385 180.36 62.6433 182.455 61.9694C184.55 61.2528 186.771 60.8994 189.117 60.9092C189.843 60.9123 190.738 61.0013 191.804 61.1765C192.912 61.3518 193.998 61.6337 195.063 62.0221C196.17 62.3681 197.063 62.8625 197.742 63.5053C198.124 63.8056 198.315 64.0411 198.313 64.2117C198.312 64.3824 198.204 64.638 197.989 64.9784L195.272 69.6391C194.97 70.2351 194.478 70.3824 193.798 70.0809C193.202 69.7371 192.543 69.393 191.82 69.0486C191.097 68.7042 190.352 68.4238 189.585 68.2072C188.861 67.9482 188.179 67.8174 187.539 67.8147C186.387 67.8099 185.448 67.9766 184.72 68.3149C183.993 68.6105 183.564 69.0567 183.432 69.6535C183.344 70.1225 183.405 70.5494 183.616 70.9343C183.87 71.2767 184.274 71.5557 184.827 71.7713C185.381 71.9443 186.063 72.0539 186.873 72.0999C187.641 72.1458 188.557 72.3416 189.622 72.6874C190.686 73.0332 191.686 73.5494 192.62 74.236C193.555 74.9226 194.253 75.8642 194.715 77.0608C195.22 78.2576 195.275 79.7511 194.88 81.5415C194.309 84.1418 193.209 86.1852 191.578 87.6717C189.948 89.1582 188.107 90.2172 186.055 90.8486C184.046 91.4375 182.103 91.7281 180.225 91.7202C179.415 91.7168 178.37 91.6271 177.091 91.4511C175.855 91.2753 174.619 90.9928 173.384 90.6036C172.192 90.1719 171.214 89.6345 170.45 88.9913C170.068 88.691 169.963 88.3279 170.137 87.902L172.149 83.2384Z"/>
</mask>
<path d="M85.2922 70.8427C85.3765 71.0138 85.5253 71.0997 85.7386 71.1006C85.9946 71.1017 86.1447 70.9743 86.1889 70.7185C86.4525 69.4823 86.7161 68.2247 86.9799 66.9458C87.244 65.6242 87.5083 64.26 87.7729 62.8531C88.0375 61.4462 88.281 59.9965 88.5034 58.5041C88.7688 56.9692 88.9916 55.4128 89.1719 53.8349C89.3949 52.2571 89.5969 50.6153 89.778 48.9094C89.8672 48.2697 90.0825 47.9506 90.4238 47.9521L98.2957 47.985C98.5944 47.9863 98.8499 48.0727 99.0622 48.2442C99.3171 48.416 99.4437 48.6512 99.4419 48.9498C99.4322 50.5285 99.2712 52.4478 98.9588 54.7078C98.6466 56.9252 98.2265 59.3341 97.6987 61.9346C97.2135 64.5353 96.664 67.1783 96.0503 69.8638C95.4366 72.5492 94.8019 75.1706 94.1463 77.7279C93.4907 80.2851 92.8578 82.6292 92.2474 84.76C91.6371 86.8907 91.0715 88.6804 90.5507 90.1289C90.3774 90.5548 90.1412 90.8098 89.842 90.8939C89.5855 90.9782 89.2866 91.0196 88.9452 91.0182L84.0173 90.9976C83.6759 90.9961 83.3583 90.6108 83.0643 89.8416L72.7674 67.6543C72.7258 67.4835 72.6196 67.3977 72.4489 67.397C72.321 67.3964 72.235 67.5027 72.191 67.7159C71.6642 70.1457 71.2028 72.3411 70.8068 74.3021C70.4538 76.2207 70.1231 77.9686 69.8148 79.546C69.5495 81.0809 69.3064 82.4666 69.0855 83.703C68.9073 84.9396 68.7509 86.091 68.6164 87.1571C68.4822 88.1805 68.3697 89.14 68.2789 90.0357C68.2326 90.6328 67.9961 90.9305 67.5694 90.9287L59.8895 90.8966C59.5908 90.8953 59.2924 90.8514 58.9943 90.7648C58.6961 90.6782 58.5697 90.4217 58.6149 89.9952C58.7945 88.5453 59.04 86.7543 59.3517 84.6223C59.6634 82.4902 60.0404 80.1451 60.4826 77.587C60.9676 75.029 61.4742 72.4071 62.0026 69.7213C62.5737 67.0356 63.1658 64.3928 63.779 61.7926C64.4348 59.1927 65.0895 56.7848 65.743 54.5688C66.4395 52.3104 67.1339 50.3933 67.8261 48.8175C67.956 48.5194 68.1707 48.2856 68.4704 48.1162C68.8128 47.9469 69.112 47.8629 69.368 47.8639L74.0399 47.8835C74.4666 47.8853 74.7426 48.0998 74.868 48.527L85.2922 70.8427ZM100.148 75.897C100.587 73.9361 101.217 72.0401 102.039 70.2088C102.861 68.3776 103.937 66.7394 105.269 65.2943C106.643 63.8067 108.314 62.6404 110.282 61.7953C112.293 60.9504 114.685 60.5337 117.458 60.5453C120.317 60.5573 122.511 60.9718 124.043 61.7889C125.574 62.5633 126.634 63.6131 127.223 64.9382C127.813 66.2207 128.082 67.6511 128.029 69.2296C127.977 70.7654 127.776 72.3006 127.425 73.8351C127.03 75.6681 126.532 76.9034 125.931 77.5409C125.329 78.1784 124.581 78.4952 123.685 78.4915L109.925 78.4339C109.626 78.4326 109.455 78.4959 109.412 78.6238C109.368 78.7089 109.303 78.9006 109.216 79.1989C109.082 80.2224 109.183 81.1615 109.519 82.0162C109.898 82.8711 110.491 83.5563 111.298 84.0717C112.149 84.5872 113.214 84.8477 114.494 84.8531C115.987 84.8593 117.396 84.6305 118.722 84.1668C120.09 83.7031 121.031 83.3444 121.545 83.0906C122.229 82.7521 122.721 82.5622 123.02 82.5207C123.362 82.4368 123.637 82.7793 123.846 83.5482L124.724 86.5599C124.933 87.1581 124.931 87.5634 124.716 87.7759C124.544 87.9458 124.159 88.2002 123.559 88.539C121.846 89.5985 119.815 90.358 117.465 90.8175C115.116 91.2344 112.875 91.4383 110.742 91.4294C107.883 91.4174 105.624 91.0027 103.965 90.185C102.349 89.3676 101.182 88.2534 100.465 86.8424C99.7916 85.3889 99.4604 83.7235 99.4718 81.8462C99.4833 79.9689 99.7087 77.9858 100.148 75.897ZM118.283 72.2608C118.458 71.4509 118.526 70.7685 118.487 70.2137C118.448 69.6162 118.302 69.1249 118.048 68.7398C117.837 68.3549 117.519 68.0763 117.093 67.9038C116.71 67.6889 116.22 67.5802 115.623 67.5777C114.94 67.5748 114.321 67.7002 113.765 67.9539C113.251 68.2077 112.78 68.5471 112.351 68.972C111.964 69.397 111.62 69.8649 111.318 70.3757C111.016 70.8864 110.757 71.3973 110.541 71.9084C110.323 72.5902 110.214 73.0377 110.212 73.2511C110.254 73.4219 110.36 73.5077 110.531 73.5084C111.683 73.5132 112.835 73.518 113.987 73.5229C115.181 73.5279 116.355 73.5328 117.507 73.5376C117.805 73.5388 117.976 73.4756 118.02 73.3477C118.106 73.1774 118.194 72.8151 118.283 72.2608ZM137.269 91.2204C136.885 91.2188 136.608 91.1323 136.439 90.961C136.27 90.7469 136.122 90.469 135.996 90.1271C135.327 87.9483 134.743 85.6418 134.246 83.2077C133.792 80.7738 133.422 78.3616 133.138 75.971C132.897 73.5807 132.719 71.3186 132.604 69.1848C132.531 67.0511 132.521 65.1737 132.574 63.5526C132.621 62.8274 132.689 62.2304 132.777 61.7614C132.908 61.25 133.208 60.9952 133.677 60.9972L141.549 61.0301C142.189 61.0328 142.507 61.3542 142.504 61.9941C142.496 63.2741 142.488 64.5968 142.479 65.9621C142.471 67.2847 142.463 68.586 142.456 69.866C142.448 71.146 142.44 72.3406 142.434 73.4499C142.47 74.5594 142.485 75.5408 142.48 76.3941C142.518 77.205 142.557 77.8025 142.597 78.1866C142.635 78.9121 142.869 78.9771 143.3 78.3816C143.558 77.9987 143.839 77.4665 144.141 76.7851C144.487 76.1039 144.811 75.3799 145.115 74.6132C145.418 73.8038 145.7 73.0156 145.961 72.2487C146.222 71.4391 146.418 70.7573 146.55 70.2031C146.725 69.3932 146.879 68.6045 147.012 67.837C147.188 67.0271 147.342 66.2811 147.474 65.599C147.606 64.9168 147.738 64.2774 147.869 63.6806C148.001 63.0838 148.111 62.5723 148.199 62.146C148.331 61.4639 148.717 61.1241 149.357 61.1268L157.549 61.1611C157.805 61.1622 157.996 61.2483 158.123 61.4195C158.293 61.5482 158.334 61.7831 158.247 62.124C157.983 63.3603 157.676 64.7883 157.325 66.4082C157.016 68.0283 156.793 69.606 156.656 71.1414C156.609 71.7812 156.563 72.4211 156.516 73.0609C156.47 73.658 156.424 74.2552 156.377 74.8523C156.374 75.407 156.371 75.9403 156.368 76.4523C156.407 76.9218 156.447 77.3699 156.487 77.7968C156.528 78.1809 156.568 78.5438 156.609 78.8853C156.733 79.5258 156.946 79.5267 157.249 78.888C157.551 78.2492 157.897 77.4827 158.287 76.5883C158.719 75.6941 159.173 74.7147 159.649 73.65C160.168 72.5428 160.687 71.3716 161.206 70.1365C161.726 68.8586 162.246 67.5808 162.766 66.303C163.328 64.9827 163.848 63.6622 164.326 62.3415C164.629 61.5321 165.229 61.1292 166.125 61.133L172.845 61.1611C173.314 61.1631 173.527 61.3773 173.481 61.8038C173.436 62.2303 173.305 62.7631 173.087 63.4022C172.523 64.9785 171.787 66.7674 170.879 68.7689C169.971 70.7278 168.956 72.7716 167.833 74.9002C166.711 76.9862 165.568 79.0295 164.404 81.0299C163.283 82.9879 162.162 84.7752 161.043 86.3919C159.967 87.9661 158.999 89.2207 158.14 90.1558C157.796 90.5383 157.496 90.8358 157.239 91.048C157.024 91.2178 156.704 91.3018 156.277 91.3L152.053 91.2823C151.627 91.2805 151.328 91.2366 151.158 91.1506C151.031 91.022 150.904 90.8082 150.778 90.509C150.652 90.2098 150.463 89.697 150.211 88.9706C150.002 88.2444 149.773 87.4327 149.522 86.5357C149.314 85.6388 149.148 84.8274 149.025 84.1016C148.942 83.6319 148.773 83.3965 148.517 83.3955C148.304 83.3946 148.089 83.5857 147.874 83.9688C147.788 84.0964 147.594 84.3943 147.292 84.8623C146.991 85.2877 146.668 85.7557 146.324 86.2663C146.022 86.7344 145.764 87.096 145.549 87.3511C145.119 87.9039 144.646 88.5206 144.13 89.2011C143.656 89.8392 143.334 90.2645 143.162 90.4771C142.99 90.647 142.776 90.8168 142.519 90.9864C142.262 91.156 141.963 91.2401 141.621 91.2386L137.269 91.2204ZM172.149 83.2384C172.366 82.6846 172.623 82.451 172.921 82.5376C173.262 82.5817 173.56 82.7109 173.815 82.9253C174.453 83.312 175.219 83.6352 176.113 83.895C177.05 84.1549 177.988 84.3508 178.926 84.4827C179.906 84.6148 180.802 84.6826 181.612 84.686C182.38 84.6892 183.063 84.6281 183.662 84.5026C184.26 84.3344 184.773 84.1019 185.202 83.805C185.631 83.4655 185.932 83.0187 186.106 82.4648C186.193 82.1238 186.174 81.8037 186.048 81.5045C185.965 81.1628 185.561 80.8412 184.838 80.5395C184.157 80.1953 182.964 79.8703 181.26 79.5645C180.45 79.4331 179.555 79.216 178.576 78.9132C177.639 78.568 176.767 78.0523 175.961 77.3663C175.197 76.6804 174.627 75.7394 174.25 74.5431C173.916 73.347 173.947 71.7898 174.343 69.8715C174.781 67.9106 175.709 66.2718 177.125 64.9551C178.583 63.6385 180.36 62.6433 182.455 61.9694C184.55 61.2528 186.771 60.8994 189.117 60.9092C189.843 60.9123 190.738 61.0013 191.804 61.1765C192.912 61.3518 193.998 61.6337 195.063 62.0221C196.17 62.3681 197.063 62.8625 197.742 63.5053C198.124 63.8056 198.315 64.0411 198.313 64.2117C198.312 64.3824 198.204 64.638 197.989 64.9784L195.272 69.6391C194.97 70.2351 194.478 70.3824 193.798 70.0809C193.202 69.7371 192.543 69.393 191.82 69.0486C191.097 68.7042 190.352 68.4238 189.585 68.2072C188.861 67.9482 188.179 67.8174 187.539 67.8147C186.387 67.8099 185.448 67.9766 184.72 68.3149C183.993 68.6105 183.564 69.0567 183.432 69.6535C183.344 70.1225 183.405 70.5494 183.616 70.9343C183.87 71.2767 184.274 71.5557 184.827 71.7713C185.381 71.9443 186.063 72.0539 186.873 72.0999C187.641 72.1458 188.557 72.3416 189.622 72.6874C190.686 73.0332 191.686 73.5494 192.62 74.236C193.555 74.9226 194.253 75.8642 194.715 77.0608C195.22 78.2576 195.275 79.7511 194.88 81.5415C194.309 84.1418 193.209 86.1852 191.578 87.6717C189.948 89.1582 188.107 90.2172 186.055 90.8486C184.046 91.4375 182.103 91.7281 180.225 91.7202C179.415 91.7168 178.37 91.6271 177.091 91.4511C175.855 91.2753 174.619 90.9928 173.384 90.6036C172.192 90.1719 171.214 89.6345 170.45 88.9913C170.068 88.691 169.963 88.3279 170.137 87.902L172.149 83.2384Z" fill="black"/>
<path d="M54.1514 31.5496C54.039 31.6218 53.8839 31.618 53.6861 31.5381C53.495 31.4649 53.2809 31.3355 53.044 31.1499C52.807 30.9643 52.5602 30.7424 52.3037 30.4842C51.1 29.2725 50.5361 28.1487 50.6121 27.1128C50.7013 26.0769 51.4007 25.1387 52.7102 24.2983C53.5833 23.7336 54.4721 23.3835 55.3767 23.2479C56.2813 23.1123 57.1423 23.1778 57.9598 23.4445C58.7905 23.7112 59.515 24.1558 60.1333 24.7782C60.4162 25.063 60.6759 25.3443 60.9126 25.6223C61.1558 25.9069 61.3167 26.1417 61.3953 26.3267C61.4609 26.459 61.5035 26.5548 61.5231 26.6143C61.5427 26.6737 61.4929 26.7428 61.3739 26.8217L60.4116 27.4421C60.2396 27.5604 60.1009 27.5995 59.9954 27.5596C59.89 27.5196 59.8275 27.4435 59.8081 27.3312C59.7561 27.0935 59.6743 26.8721 59.5628 26.6672C59.4579 26.4556 59.2936 26.2373 59.07 26.0122C58.8924 25.8334 58.6554 25.6544 58.359 25.4752C58.0692 25.3027 57.7198 25.1761 57.3109 25.0956C56.9152 25.0151 56.4697 25.0235 55.9744 25.1209C55.4856 25.2249 54.9503 25.4673 54.3682 25.8481C53.8854 26.1567 53.5215 26.4525 53.2763 26.7355C53.0378 27.0251 52.8818 27.2984 52.8084 27.5556C52.7481 27.8128 52.7407 28.0503 52.7862 28.2683C52.8449 28.4863 52.93 28.6779 53.0417 28.8433C53.1533 29.0087 53.2618 29.1443 53.367 29.2503C53.5052 29.3893 53.6304 29.4227 53.7429 29.3505L55.5683 28.1686C55.608 28.1423 55.6279 28.1226 55.6279 28.1094C55.6279 28.0962 55.6115 28.073 55.5786 28.0399L54.5624 27.0169C54.49 26.9441 54.4506 26.8912 54.4441 26.8581C54.4442 26.8317 54.4905 26.7857 54.5831 26.72L55.5554 26.0896C55.648 26.024 55.7174 25.9945 55.7636 26.0012C55.8164 26.0014 55.8822 26.0412 55.9612 26.1207L58.3193 28.4945C58.4311 28.607 58.4804 28.6831 58.467 28.7227C58.4603 28.7556 58.3875 28.8148 58.2487 28.9001L54.1514 31.5496ZM54.9787 33.0578C54.9393 33.0181 54.9196 32.9718 54.9198 32.919C54.9266 32.8728 54.9531 32.8333 54.9994 32.8005L62.7474 27.807C62.8665 27.7282 62.9754 27.7385 63.074 27.8378L66.4287 31.2147C66.5208 31.3074 66.5668 31.367 66.5667 31.3934C66.5666 31.4198 66.5137 31.4658 66.4079 31.5315L65.4456 32.1519C65.3331 32.2242 65.2538 32.2569 65.2076 32.2502C65.1681 32.2368 65.1088 32.1904 65.0299 32.111L63.1158 30.1841C63.0697 30.1378 63.0401 30.1146 63.0269 30.1145C63.0203 30.1211 62.9905 30.1375 62.9376 30.1637L61.2015 31.2767C61.1486 31.3161 61.1188 31.3391 61.1122 31.3457C61.1122 31.3589 61.1319 31.3853 61.1714 31.425L62.6514 32.9149C62.75 33.0142 62.7927 33.077 62.7794 33.1034C62.7727 33.1364 62.7065 33.1955 62.5809 33.2809L61.7277 33.8325C61.6086 33.9113 61.526 33.9473 61.4798 33.9405C61.4402 33.9404 61.3744 33.894 61.2823 33.8013L59.8023 32.3115C59.7694 32.2784 59.7431 32.2585 59.7233 32.2518C59.7035 32.2452 59.6738 32.255 59.6341 32.2812L57.8384 33.4533C57.7921 33.4862 57.7623 33.5092 57.7491 33.5223C57.749 33.5355 57.7687 33.562 57.8082 33.6017L59.7026 35.5087C59.8144 35.6213 59.8604 35.694 59.8405 35.7269C59.8338 35.7599 59.7709 35.8158 59.6518 35.8946L58.7887 36.456C58.6565 36.5348 58.564 36.5675 58.5112 36.5541C58.465 36.5474 58.3926 36.4943 58.294 36.395L54.9787 33.0578ZM63.1506 34.649C64.0236 34.0843 64.8466 33.6812 65.6196 33.4395C66.3991 33.2045 67.1515 33.1872 67.8768 33.3876C68.6088 33.5814 69.3398 34.0458 70.0699 34.7808C70.6356 35.3502 71.0068 35.8761 71.1834 36.3585C71.3665 36.8475 71.3815 37.3062 71.2283 37.7347C71.0817 38.1698 70.7899 38.5912 70.353 38.9989C69.9226 39.4133 69.3801 39.8339 68.7253 40.2607C67.8522 40.8254 67.0325 41.2319 66.2661 41.4801C65.5064 41.7218 64.7605 41.7457 64.0286 41.5519C63.3033 41.3515 62.5624 40.8706 61.806 40.1091C61.0758 39.3741 60.6689 38.6996 60.5851 38.0856C60.508 37.465 60.6947 36.8782 61.1453 36.3253C61.6091 35.7725 62.2776 35.2137 63.1506 34.649ZM64.6997 36.2084C63.992 36.6614 63.4858 37.0524 63.1811 37.3814C62.8897 37.7104 62.7567 38.0136 62.7822 38.2908C62.8208 38.5682 62.9816 38.8492 63.2644 39.1339C63.5473 39.4186 63.8536 39.6077 64.1832 39.7012C64.5129 39.7947 64.9156 39.763 65.3913 39.6062C65.8736 39.456 66.4685 39.1544 67.1762 38.7013C67.8905 38.2417 68.3934 37.8408 68.6849 37.4986C68.9764 37.1564 69.1029 36.84 69.0642 36.5495C69.0322 36.2656 68.8747 35.9813 68.5919 35.6966C68.309 35.4118 68.0027 35.2293 67.673 35.1491C67.3433 35.0688 66.9439 35.1103 66.4748 35.2738C66.0056 35.4372 65.4139 35.7488 64.6997 36.2084Z" fill="#72AD29"/>
<rect width="100" height="100" fill="url(#pattern0_11_5)"/>
<defs>
<pattern id="pattern0_11_5" patternContentUnits="objectBoundingBox" width="1" height="1">
<use xlink:href="#image0_11_5" transform="scale(0.00195312)"/>
</pattern>
</defs>
</svg>
